<svg width="24" height="24" viewBox="0 0 24 24" fill="none" xmlns="http://www.w3.org/2000/svg">
<path fill-rule="evenodd" clip-rule="evenodd" d="M19.8046 5.13806C20.065 4.87772 20.065 4.45562 19.8046 4.19527C19.5443 3.93492 19.1222 3.93491 18.8619 4.19525L16.2446 6.81244C14.9426 6.28769 13.5171 5.99862 12 5.99862C7.74382 5.99862 4.20853 8.27368 2.10134 11.6451C1.96622 11.8612 1.96622 12.1356 2.10134 12.3517C3.20409 14.1161 4.69795 15.5801 6.48157 16.575L4.19519 18.8613C3.93484 19.1217 3.93483 19.5438 4.19517 19.8041C4.45551 20.0645 4.87761 20.0645 5.13796 19.8041L7.75715 17.185C9.05859 17.7093 10.4835 17.9982 12 17.9982C16.2562 17.9982 19.7914 15.7231 21.8986 12.3517C22.0338 12.1356 22.0338 11.8612 21.8986 11.6451C20.7962 9.88125 19.3029 8.4175 17.52 7.42262L19.8046 5.13806ZM15.2066 7.85035C14.2051 7.51349 13.1304 7.33192 12 7.33192C8.40378 7.33192 5.37267 9.1694 3.46161 11.9984C4.49728 13.5315 5.86189 14.7734 7.46713 15.5895L15.2066 7.85035ZM8.7952 16.147L16.5345 8.40809C18.139 9.22418 19.503 10.4658 20.5384 11.9984C18.6273 14.8274 15.5962 16.6649 12 16.6649C10.8702 16.6649 9.79622 16.4835 8.7952 16.147Z" fill="#212120"/>
</svg>
