<svg width="24" height="24" viewBox="0 0 24 24" fill="none" xmlns="http://www.w3.org/2000/svg">
<path fill-rule="evenodd" clip-rule="evenodd" d="M12 16.667C8.40382 16.667 5.37271 14.8294 3.46164 12.0002C5.37271 9.17095 8.40382 7.33335 12 7.33335C15.5962 7.33335 18.6273 9.17095 20.5384 12.0002C18.6273 14.8294 15.5962 16.667 12 16.667ZM12 6C7.74381 6 4.20851 8.27524 2.10133 11.6468C1.96622 11.863 1.96622 12.1373 2.10133 12.3535C4.20852 15.7251 7.74381 18.0003 12 18.0003C16.2562 18.0003 19.7915 15.7251 21.8987 12.3535C22.0338 12.1373 22.0338 11.863 21.8987 11.6468C19.7915 8.27524 16.2562 6 12 6ZM12 14.6661C13.4728 14.6661 14.6667 13.4721 14.6667 11.9993C14.6667 10.5265 13.4728 9.3326 12 9.3326C10.5273 9.3326 9.33338 10.5265 9.33338 11.9993C9.33338 13.4721 10.5273 14.6661 12 14.6661Z" fill="#212120"/>
</svg>
